<svg width="69" height="73" viewBox="0 0 69 73" fill="none" xmlns="http://www.w3.org/2000/svg">
<path d="M39.0069 72.964H31.2317C14.229 72.964 0.44635 56.8464 0.44635 36.964C0.44635 17.0816 14.229 0.963989 31.2317 0.963989H37.661L39.0069 72.964Z" fill="#E4AF18"/>
<path d="M34.0488 2.10886H23.5782C21.8006 2.64086 20.082 3.34245 18.4439 4.21845H28.9896C30.6072 3.35365 32.2954 2.63926 34.0488 2.10886Z" fill="#C49214"/>
<path d="M23.8255 7.72723H13.2789C12.4111 8.45763 11.5755 9.23683 10.7783 10.0664H21.324C22.1221 9.23683 22.9577 8.45763 23.8255 7.72723Z" fill="#C49214"/>
<path d="M17.566 14.744H7.01939C6.51087 15.5008 6.0247 16.2792 5.56891 17.0832H16.1146C16.5713 16.2792 17.0575 15.5008 17.566 14.744Z" fill="#C49214"/>
<path d="M13.8714 21.7608H3.32575C3.0201 22.5264 2.73858 23.3064 2.47852 24.1H13.0242C13.2843 23.3064 13.5667 22.5264 13.8714 21.7608Z" fill="#C49214"/>
<path d="M11.8013 28.7778H1.25562C1.1019 29.549 0.966951 30.3274 0.857025 31.117H11.4027C11.5126 30.3274 11.6485 29.549 11.8013 28.7778Z" fill="#C49214"/>
<path d="M10.9929 36.9638C10.9929 36.5718 11.0072 36.1838 11.0179 35.7942H0.472268C0.461543 36.1838 0.44635 36.5718 0.44635 36.9638C0.44635 37.3558 0.46065 37.7438 0.471374 38.1334H11.0171C11.0072 37.7438 10.9929 37.3558 10.9929 36.9638Z" fill="#C49214"/>
<path d="M11.4027 42.8111H0.857025C0.966951 43.5999 1.1019 44.3791 1.25562 45.1503H11.8013C11.6485 44.3791 11.5126 43.6007 11.4027 42.8111Z" fill="#C49214"/>
<path d="M13.0242 49.828H2.47852C2.73858 50.6216 3.0201 51.4016 3.32575 52.1672H13.8723C13.5667 51.4016 13.2843 50.6216 13.0242 49.828Z" fill="#C49214"/>
<path d="M16.1146 56.8447H5.56891C6.02559 57.6487 6.51177 58.4271 7.01939 59.1839H17.566C17.0575 58.4271 16.5713 57.6487 16.1146 56.8447Z" fill="#C49214"/>
<path d="M21.3244 63.8616H10.7787C11.5759 64.6912 12.4106 65.4704 13.2793 66.2008H23.8259C22.9572 65.4704 22.1216 64.6912 21.3244 63.8616Z" fill="#C49214"/>
<path d="M28.4194 69.407L18.443 69.7094C20.1017 70.5966 21.8427 71.3046 23.6435 71.839H34.1132C32.1319 71.2446 30.2265 70.4262 28.4194 69.407Z" fill="#C49214"/>
<path d="M37.6608 72.964C54.6631 72.964 68.4462 56.8462 68.4462 36.964C68.4462 17.0817 54.6631 0.963989 37.6608 0.963989C20.6585 0.963989 6.8754 17.0817 6.8754 36.964C6.8754 56.8462 20.6585 72.964 37.6608 72.964Z" fill="#FFD949"/>
<path d="M37.6569 64.9641C50.8809 64.9641 61.601 52.428 61.601 36.9641C61.601 21.5001 50.8809 8.96405 37.6569 8.96405C24.433 8.96405 13.7128 21.5001 13.7128 36.9641C13.7128 52.428 24.433 64.9641 37.6569 64.9641Z" fill="#E4AF18"/>
<path d="M50.9736 43.5767C50.9093 38.2087 46.3112 34.3159 40.7255 34.8991L36.6744 35.3223C33.4642 35.6575 30.8224 33.4207 30.7857 30.3359C30.7482 27.2511 33.3301 24.4687 36.5394 24.1335L44.4817 23.3039C45.6722 23.1799 46.6257 22.1519 46.6114 21.0079C46.598 19.8639 45.6221 19.0375 44.4317 19.1623L40.6701 19.5551L40.6317 16.3663C40.6183 15.2223 39.6423 14.3959 38.4519 14.5207C37.2615 14.6447 36.3079 15.6727 36.3222 16.8167L36.3607 20.0119C30.8349 20.6567 26.412 25.4599 26.4763 30.7863C26.5407 36.1551 31.1388 40.0479 36.7253 39.4639L40.7765 39.0407C43.9866 38.7055 46.6275 40.9431 46.6651 44.0271C46.7026 47.1119 44.1216 49.8935 40.9114 50.2295L32.9691 51.0591C31.7786 51.1831 30.8251 52.2111 30.8394 53.3551C30.8537 54.4991 31.8287 55.3255 33.0191 55.2007L36.7807 54.8079L36.8191 57.9823C36.8325 59.1263 37.8085 59.9527 38.9989 59.8279C40.1893 59.7039 41.1429 58.6759 41.1286 57.5319L41.0901 54.3511C46.615 53.7071 51.0379 48.9039 50.9736 43.5767Z" fill="#FFD949"/>
</svg>
